<svg
            width="934"
            height="40"
            viewBox="0 0 708 30"
            fill="none"
            xmlns="http://www.w3.org/2000/svg"
          >
            <path
              d="M28 22.56H9.48V17.88H26.48V11.4H9.48V7.48H27.6V1H0V29H28V22.56Z"
              fill="black"
            />
            <path
              d="M48.7616 11.52C43.9616 11.04 40.4816 10.88 40.4816 8.96C40.4816 7.36 42.4816 6.8 46.3216 6.8C49.9616 6.8 52.2016 7.64 52.2016 9.56H61.8416C61.8416 4.72 58.3216 0.440002 46.4416 0.440002C35.5616 0.440002 31.0416 3.72 31.0416 9.4C31.0416 15 34.0816 16.8 42.6816 18.12C50.7216 19.36 53.4416 19.24 53.4416 21.12C53.4416 22.68 51.2016 23.24 47.4416 23.24C43.5216 23.24 40.3216 22.52 40.3216 19.92H30.4016C30.4016 25.8 35.0816 29.6 46.9216 29.6C57.9216 29.6 63.6416 26.84 63.6416 20.12C63.6416 13.04 57.5216 12.44 48.7616 11.52Z"
              fill="black"
            />
            <path
              d="M95.5441 1H64.8641V7.48H75.4641V29H84.9441V7.48H95.5441V1Z"
              fill="black"
            />
            <path
              d="M120.39 1V16.52C120.39 22.24 118.07 23.2 114.31 23.2C110.51 23.2 108.23 22.24 108.23 16.52V1H98.75V17.28C98.75 28.12 106.35 29.6 114.31 29.6C122.27 29.6 129.87 28.12 129.87 17.28V1H120.39Z"
              fill="black"
            />
            <path
              d="M148.827 1H133.867V29H148.827C157.587 29 166.467 26.8 166.467 15C166.467 3.24 157.587 1 148.827 1ZM146.707 22.56H143.347V7.48H146.707C152.347 7.48 156.867 7.8 156.867 15C156.867 22.24 152.347 22.56 146.707 22.56Z"
              fill="black"
            />
            <path d="M169.648 1V29H179.168V1H169.648Z" fill="black" />
            <path
              d="M200.564 0.440002C191.484 0.440002 182.364 4.32 182.364 15C182.364 25.72 191.484 29.6 200.564 29.6C209.644 29.6 218.804 25.72 218.804 15C218.804 4.32 209.644 0.440002 200.564 0.440002ZM200.564 23.2C195.084 23.2 191.964 20.12 191.964 15C191.964 9.92 195.084 6.84 200.564 6.84C206.084 6.84 209.164 9.92 209.164 15C209.164 20.12 206.084 23.2 200.564 23.2Z"
              fill="black"
            />
            <path
              d="M247.343 1H232.383V29H247.343C256.103 29 264.983 26.8 264.983 15C264.983 3.24 256.103 1 247.343 1ZM245.223 22.56H241.863V7.48H245.223C250.863 7.48 255.383 7.8 255.383 15C255.383 22.24 250.863 22.56 245.223 22.56Z"
              fill="black"
            />
            <path
              d="M296.164 22.56H277.644V17.88H294.644V11.4H277.644V7.48H295.764V1H268.164V29H296.164V22.56Z"
              fill="black"
            />
            <path
              d="M335.116 29H344.996L332.036 1H321.076L308.156 29H318.036L319.796 24.68H333.316L335.116 29ZM322.436 18.2L326.556 8.08L330.716 18.2H322.436Z"
              fill="black"
            />
            <path
              d="M369.592 29H379.792L373.152 18.68C376.712 17.24 378.872 14.52 378.872 10.28C378.872 4.56 374.632 1 366.912 1H346.992V29H356.472V19.92H363.912L369.592 29ZM356.472 7.48H365.552C368.072 7.48 369.232 8.44 369.232 10.28C369.232 12.08 368.352 13.52 365.552 13.52H356.472V7.48Z"
              fill="black"
            />
            <path
              d="M417.437 15C417.437 4.32 408.277 0.440002 399.197 0.440002C390.117 0.440002 380.997 4.32 380.997 15C380.997 25.72 390.117 29.6 399.197 29.6C402.117 29.6 405.037 29.2 407.637 28.28L408.357 29H417.437L413.437 24.92C415.877 22.64 417.437 19.4 417.437 15ZM399.197 23.2C393.717 23.2 390.597 20.12 390.597 15C390.597 9.92 393.717 6.84 399.197 6.84C404.717 6.84 407.797 9.92 407.797 15C407.797 16.32 407.597 17.48 407.197 18.52L406.037 17.32H396.997L402.317 22.8C401.397 23.04 400.357 23.2 399.197 23.2Z"
              fill="black"
            />
            <path
              d="M442.265 1V16.52C442.265 22.24 439.945 23.2 436.185 23.2C432.385 23.2 430.105 22.24 430.105 16.52V1H420.625V17.28C420.625 28.12 428.225 29.6 436.185 29.6C444.145 29.6 451.745 28.12 451.745 17.28V1H442.265Z"
              fill="black"
            />
            <path d="M455.742 1V29H465.262V1H455.742Z" fill="black" />
            <path
              d="M499.138 1H468.458V7.48H479.058V29H488.538V7.48H499.138V1Z"
              fill="black"
            />
            <path
              d="M530.344 22.56H511.824V17.88H528.824V11.4H511.824V7.48H529.944V1H502.344V29H530.344V22.56Z"
              fill="black"
            />
            <path
              d="M549.844 23.2C544.444 23.2 541.964 19.96 541.964 15C541.964 10.08 544.444 6.84 549.844 6.84C554.364 6.84 556.484 8.92 557.364 12.48H567.084C565.764 3.72 558.164 0.440002 549.844 0.440002C540.724 0.440002 532.364 4.32 532.364 15C532.364 25.72 540.724 29.6 549.844 29.6C558.164 29.6 565.764 26.32 567.084 17.56H557.364C556.484 21.12 554.364 23.2 549.844 23.2Z"
              fill="black"
            />
            <path
              d="M599.372 1H568.692V7.48H579.292V29H588.772V7.48H599.372V1Z"
              fill="black"
            />
            <path
              d="M624.218 1V16.52C624.218 22.24 621.898 23.2 618.138 23.2C614.338 23.2 612.058 22.24 612.058 16.52V1H602.578V17.28C602.578 28.12 610.178 29.6 618.138 29.6C626.098 29.6 633.698 28.12 633.698 17.28V1H624.218Z"
              fill="black"
            />
            <path
              d="M660.295 29H670.495L663.855 18.68C667.415 17.24 669.575 14.52 669.575 10.28C669.575 4.56 665.335 1 657.615 1H637.695V29H647.175V19.92H654.615L660.295 29ZM647.175 7.48H656.255C658.775 7.48 659.935 8.44 659.935 10.28C659.935 12.08 659.055 13.52 656.255 13.52H647.175V7.48Z"
              fill="black"
            />
            <path
              d="M697.851 29H707.731L694.771 1H683.811L670.891 29H680.771L682.531 24.68H696.051L697.851 29ZM685.171 18.2L689.291 8.08L693.451 18.2H685.171Z"
              fill="black"
            />
          </svg>